<svg height="512" width="512" xmlns="http://www.w3.org/2000/svg"><path d="M424.966 438.631C444.672 410.655 493.5 335.87 493.5 281.73c0-31.24-8.841-59.192-26.276-83.08a7.498 7.498 0 00-10.479-1.636 7.499 7.499 0 00-1.636 10.479C470.63 228.76 478.5 253.736 478.5 281.73c0 55.27-59.073 139.137-71.293 155.89H300.452a29.98 29.98 0 00-1.896-4.308l88.368-277.329c13.784 5.801 31.407 15.086 47.658 29.269a7.476 7.476 0 004.929 1.849 7.483 7.483 0 005.654-2.568 7.502 7.502 0 00-.72-10.583c-18.616-16.244-38.795-26.557-54.007-32.748a22.38 22.38 0 00-2.502-10.104 22.354 22.354 0 00-13.159-11.109 22.358 22.358 0 00-17.159 1.449 22.355 22.355 0 00-11.109 13.158l-4.452 13.971c-16.134-8.989-34.275-13.707-52.927-13.707h-6.399v-16.354c6.886-12.361 10.77-28.217 10.77-41.083 0-21.684-10.584-34.677-30-37.251V27.27h9.423c4.143 0 7.5-3.357 7.5-7.5s-3.357-7.5-7.5-7.5H263.5V7.5c0-4.143-3.357-7.5-7.5-7.5s-7.5 3.357-7.5 7.5v4.77h-9.423c-4.143 0-7.5 3.357-7.5 7.5s3.357 7.5 7.5 7.5h9.423v12.903c-19.416 2.574-30 15.567-30 37.251 0 12.866 3.883 28.721 10.77 41.083v16.354h-6.399c-18.676 0-36.795 4.726-52.925 13.715l-4.454-13.979c-3.768-11.821-16.451-18.372-28.269-14.608a22.354 22.354 0 00-13.159 11.109 22.39 22.39 0 00-2.502 10.107c-17.461 7.097-40.544 19.22-60.698 38.922C32.754 207.609 18.5 241.794 18.5 281.73c0 38.104 24.504 86.735 45.061 120.821a7.496 7.496 0 0010.296 2.55 7.502 7.502 0 002.55-10.296C56.832 362.35 33.5 316.386 33.5 281.73c0-76.582 59.16-112.065 91.576-125.748l88.503 277.753a29.986 29.986 0 00-1.679 3.884H104.787a542.029 542.029 0 01-11.359-16.192 7.498 7.498 0 00-10.413-2.013 7.498 7.498 0 00-2.013 10.413 606.503 606.503 0 006.056 8.794C78.625 441.329 72.5 449.239 72.5 458.56v32.5c0 11.547 9.394 20.94 20.94 20.94h258.33c4.143 0 7.5-3.357 7.5-7.5s-3.357-7.5-7.5-7.5H93.44a5.947 5.947 0 01-5.94-5.94v-32.5a5.946 5.946 0 015.94-5.939h117.49c3.576 16.816 22.499 29.689 45.246 29.689s41.67-12.873 45.246-29.689H418.56a5.946 5.946 0 015.94 5.939v32.5a5.947 5.947 0 01-5.94 5.94h-34.637c-4.143 0-7.5 3.357-7.5 7.5s3.357 7.5 7.5 7.5h34.637c11.547 0 20.94-9.394 20.94-20.94v-32.5c0-9.311-6.113-17.215-14.534-19.929zm-64.164-299.482a7.45 7.45 0 013.702-4.386 7.456 7.456 0 015.721-.482 7.45 7.45 0 014.386 3.702 7.455 7.455 0 01.483 5.72l-88.211 276.836c-3.978-2.778-8.591-5.019-13.642-6.591zM253.705 411.446l-9.436-29.613v-60.081a38.932 38.932 0 0011.906 1.861c4.032 0 7.914-.618 11.555-1.748v59.968l-9.432 29.602a59.756 59.756 0 00-2.123-.042c-.828 0-1.652.019-2.47.053zm-9.435-276.141c3.606 2.152 7.527 3.385 11.73 3.385s8.125-1.232 11.73-3.385v20.131a40.32 40.32 0 00-11.555-1.684 40.24 40.24 0 00-11.906 1.795v-20.242zm-10.961 53.686c0-11.16 10.258-20.239 22.867-20.239s22.867 9.079 22.867 20.239-10.258 20.239-22.867 20.239-22.867-9.079-22.867-20.239zm22.867 35.239c4.029 0 7.91-.594 11.555-1.684v31.896a38.96 38.96 0 00-11.555-1.748c-4.163 0-8.164.661-11.906 1.861v-32.12a40.235 40.235 0 0011.906 1.795zm-22.324 63.924c0-11.281 10.015-20.459 22.324-20.459s22.324 9.178 22.324 20.459c0 11.28-10.015 20.458-22.324 20.458s-22.324-9.177-22.324-20.458zM289.13 149.86c17.109 0 33.713 4.605 48.264 13.343L282.73 334.757v-21.716c6.654-6.406 10.77-15.197 10.77-24.887s-4.116-18.48-10.77-24.887v-49.185c6.977-6.395 11.313-15.28 11.313-25.091s-4.335-18.696-11.313-25.091v-14.04zM256 54.689c15.771 0 22.5 6.799 22.5 22.734 0 21.188-12.196 46.266-22.5 46.266s-22.5-25.078-22.5-46.266c0-15.935 6.729-22.734 22.5-22.734zm-33.13 95.171h6.399v14.364c-6.771 6.37-10.961 15.121-10.961 24.767s4.19 18.397 10.961 24.767v49.859c-6.444 6.375-10.418 15.021-10.418 24.537s3.974 18.161 10.418 24.537v22.066l-54.662-171.549c14.549-8.738 31.132-13.348 48.263-13.348zm-85.48-11.877a7.45 7.45 0 014.386-3.702c3.936-1.257 8.168.929 9.423 4.869l87.592 274.896c-5.048 1.605-9.648 3.884-13.608 6.697l-88.275-277.039a7.453 7.453 0 01.482-5.721zM256.176 467.31c-16.729 0-30.862-9.369-30.862-20.459s14.133-20.458 30.862-20.458 30.862 9.368 30.862 20.458-14.133 20.459-30.862 20.459z"/><path d="M106.5 468.077v9.538c0 4.143 3.357 7.5 7.5 7.5s7.5-3.357 7.5-7.5v-9.538c0-4.143-3.357-7.5-7.5-7.5s-7.5 3.358-7.5 7.5zM147.115 468.077v9.538c0 4.143 3.357 7.5 7.5 7.5s7.5-3.357 7.5-7.5v-9.538c0-4.143-3.357-7.5-7.5-7.5s-7.5 3.358-7.5 7.5zM187.73 468.077v9.538c0 4.143 3.357 7.5 7.5 7.5s7.5-3.357 7.5-7.5v-9.538c0-4.143-3.357-7.5-7.5-7.5s-7.5 3.358-7.5 7.5zM309.27 468.077v9.538c0 4.143 3.357 7.5 7.5 7.5s7.5-3.357 7.5-7.5v-9.538c0-4.143-3.357-7.5-7.5-7.5s-7.5 3.358-7.5 7.5zM357.385 460.577a7.499 7.499 0 00-7.5 7.5v9.538c0 4.143 3.357 7.5 7.5 7.5s7.5-3.357 7.5-7.5v-9.538a7.5 7.5 0 00-7.5-7.5zM405.5 477.615v-9.538c0-4.143-3.357-7.5-7.5-7.5s-7.5 3.357-7.5 7.5v9.538c0 4.143 3.357 7.5 7.5 7.5s7.5-3.357 7.5-7.5z"/></svg>