<svg id="Layer_1" enable-background="new 0 0 512 512" height="512" viewBox="0 0 512 512" width="512" xmlns="http://www.w3.org/2000/svg"><g><g><path d="m424.966 438.631c19.706-27.976 68.534-102.761 68.534-156.901 0-31.24-8.841-59.192-26.276-83.08-2.443-3.346-7.135-4.079-10.479-1.636-3.346 2.441-4.078 7.134-1.636 10.479 15.521 21.267 23.391 46.243 23.391 74.237 0 55.27-59.073 139.137-71.293 155.89h-106.755c-.515-1.476-1.148-2.915-1.896-4.308l88.368-277.329c13.784 5.801 31.407 15.086 47.658 29.269 1.422 1.24 3.179 1.849 4.929 1.849 2.091 0 4.171-.869 5.654-2.568 2.723-3.121 2.4-7.859-.72-10.583-18.616-16.244-38.795-26.557-54.007-32.748-.031-3.477-.859-6.924-2.502-10.104-2.759-5.339-7.433-9.285-13.159-11.109-5.726-1.823-11.819-1.31-17.159 1.449-5.339 2.759-9.285 7.433-11.109 13.158l-4.452 13.971c-16.134-8.989-34.275-13.707-52.927-13.707h-6.399v-16.354c6.886-12.361 10.77-28.217 10.77-41.083 0-21.684-10.584-34.677-30-37.251v-12.902h9.423c4.143 0 7.5-3.357 7.5-7.5s-3.357-7.5-7.5-7.5h-9.424v-4.77c0-4.143-3.357-7.5-7.5-7.5s-7.5 3.357-7.5 7.5v4.77h-9.423c-4.143 0-7.5 3.357-7.5 7.5s3.357 7.5 7.5 7.5h9.423v12.903c-19.416 2.574-30 15.567-30 37.251 0 12.866 3.883 28.721 10.77 41.083v16.354h-6.399c-18.676 0-36.795 4.726-52.925 13.715l-4.454-13.979c-3.768-11.821-16.451-18.372-28.269-14.608-5.727 1.824-10.4 5.771-13.159 11.109-1.643 3.18-2.471 6.629-2.502 10.107-17.461 7.097-40.544 19.22-60.698 38.922-28.11 27.482-42.364 61.667-42.364 101.603 0 38.104 24.504 86.735 45.061 120.821 1.409 2.336 3.888 3.628 6.43 3.628 1.319 0 2.655-.348 3.866-1.078 3.547-2.14 4.688-6.749 2.55-10.296-19.575-32.455-42.907-78.419-42.907-113.075 0-76.582 59.16-112.065 91.576-125.748l88.503 277.753c-.652 1.262-1.216 2.557-1.679 3.884h-107.113c-2.337-3.195-6.381-8.828-11.359-16.192-2.319-3.432-6.982-4.334-10.413-2.013-3.432 2.319-4.333 6.981-2.013 10.413 2.232 3.303 4.264 6.24 6.056 8.794-8.433 2.708-14.558 10.618-14.558 19.939v32.5c0 11.547 9.394 20.94 20.94 20.94h258.33c4.143 0 7.5-3.357 7.5-7.5s-3.357-7.5-7.5-7.5h-258.33c-3.275 0-5.94-2.665-5.94-5.94v-32.5c0-3.275 2.665-5.939 5.94-5.939h117.49c3.576 16.816 22.499 29.689 45.246 29.689s41.67-12.873 45.246-29.689h117.138c3.275 0 5.94 2.664 5.94 5.939v32.5c0 3.275-2.665 5.94-5.94 5.94h-34.637c-4.143 0-7.5 3.357-7.5 7.5s3.357 7.5 7.5 7.5h34.637c11.547 0 20.94-9.394 20.94-20.94v-32.5c0-9.311-6.113-17.215-14.534-19.929zm-64.164-299.482c.607-1.908 1.923-3.466 3.702-4.386 1.78-.918 3.808-1.091 5.721-.482 1.908.607 3.466 1.923 4.386 3.702.919 1.78 1.091 3.812.483 5.72l-88.211 276.836c-3.978-2.778-8.591-5.019-13.642-6.591zm-107.097 272.297-9.436-29.613v-60.081c3.742 1.2 7.743 1.861 11.906 1.861 4.032 0 7.914-.618 11.555-1.748v59.968l-9.432 29.602c-.704-.025-1.411-.042-2.123-.042-.828 0-1.652.019-2.47.053zm-9.435-276.141c3.606 2.152 7.527 3.385 11.73 3.385s8.125-1.232 11.73-3.385v20.131c-3.645-1.089-7.526-1.684-11.555-1.684-4.159 0-8.159.636-11.906 1.795v-20.242zm-10.961 53.686c0-11.16 10.258-20.239 22.867-20.239s22.867 9.079 22.867 20.239-10.258 20.239-22.867 20.239-22.867-9.079-22.867-20.239zm22.867 35.239c4.029 0 7.91-.594 11.555-1.684v31.896c-3.641-1.129-7.522-1.748-11.555-1.748-4.163 0-8.164.661-11.906 1.861v-32.12c3.746 1.159 7.747 1.795 11.906 1.795zm-22.324 63.924c0-11.281 10.015-20.459 22.324-20.459s22.324 9.178 22.324 20.459c0 11.28-10.015 20.458-22.324 20.458s-22.324-9.177-22.324-20.458zm55.278-138.294c17.109 0 33.713 4.605 48.264 13.343l-54.664 171.554v-21.716c6.654-6.406 10.77-15.197 10.77-24.887s-4.116-18.48-10.77-24.887v-49.185c6.977-6.395 11.313-15.28 11.313-25.091s-4.335-18.696-11.313-25.091v-14.04zm-33.13-95.171c15.771 0 22.5 6.799 22.5 22.734 0 21.188-12.196 46.266-22.5 46.266s-22.5-25.078-22.5-46.266c0-15.935 6.729-22.734 22.5-22.734zm-33.13 95.171h6.399v14.364c-6.771 6.37-10.961 15.121-10.961 24.767s4.19 18.397 10.961 24.767v49.859c-6.444 6.375-10.418 15.021-10.418 24.537s3.974 18.161 10.418 24.537v22.066l-54.662-171.549c14.549-8.738 31.132-13.348 48.263-13.348zm-85.48-11.877c.92-1.779 2.478-3.095 4.386-3.702 3.936-1.257 8.168.929 9.423 4.869l87.592 274.896c-5.048 1.605-9.648 3.884-13.608 6.697l-88.275-277.039c-.609-1.909-.437-3.94.482-5.721zm118.786 329.327c-16.729 0-30.862-9.369-30.862-20.459s14.133-20.458 30.862-20.458 30.862 9.368 30.862 20.458-14.133 20.459-30.862 20.459z"/><path d="m106.5 468.077v9.538c0 4.143 3.357 7.5 7.5 7.5s7.5-3.357 7.5-7.5v-9.538c0-4.143-3.357-7.5-7.5-7.5s-7.5 3.358-7.5 7.5z"/><path d="m147.115 468.077v9.538c0 4.143 3.357 7.5 7.5 7.5s7.5-3.357 7.5-7.5v-9.538c0-4.143-3.357-7.5-7.5-7.5s-7.5 3.358-7.5 7.5z"/><path d="m187.73 468.077v9.538c0 4.143 3.357 7.5 7.5 7.5s7.5-3.357 7.5-7.5v-9.538c0-4.143-3.357-7.5-7.5-7.5s-7.5 3.358-7.5 7.5z"/><path d="m309.27 468.077v9.538c0 4.143 3.357 7.5 7.5 7.5s7.5-3.357 7.5-7.5v-9.538c0-4.143-3.357-7.5-7.5-7.5s-7.5 3.358-7.5 7.5z"/><path d="m357.385 460.577c-4.143 0-7.5 3.357-7.5 7.5v9.538c0 4.143 3.357 7.5 7.5 7.5s7.5-3.357 7.5-7.5v-9.538c0-4.142-3.358-7.5-7.5-7.5z"/><path d="m405.5 477.615v-9.538c0-4.143-3.357-7.5-7.5-7.5s-7.5 3.357-7.5 7.5v9.538c0 4.143 3.357 7.5 7.5 7.5s7.5-3.357 7.5-7.5z"/></g></g></svg>